<svg xmlns="http://www.w3.org/2000/svg" xmlns:xlink="http://www.w3.org/1999/xlink" width="500" zoomAndPan="magnify" viewBox="0 0 375 374.999991" height="500" preserveAspectRatio="xMidYMid meet" version="1.0"><defs><g/><clipPath id="d0068948d0"><rect x="0" width="372" y="0" height="51"/></clipPath><clipPath id="0726b5a88c"><rect x="0" width="281" y="0" height="29"/></clipPath><clipPath id="0f8aa671d6"><path d="M 48.039062 5.332031 L 327.039062 5.332031 L 327.039062 284.332031 L 48.039062 284.332031 Z M 48.039062 5.332031 " clip-rule="nonzero"/></clipPath></defs><g transform="matrix(1, 0, 0, 1, 3, 283)"><g clip-path="url(#d0068948d0)"><g fill="#000c44" fill-opacity="1"><g transform="translate(1.270745, 39.351107)"><g><path d="M 29.28125 -28.640625 L 29.28125 0 L 24.90625 0 L 9.125 -19.390625 L 9.125 0 L 3.84375 0 L 3.84375 -28.640625 L 8.21875 -28.640625 L 24.015625 -9.25 L 24.015625 -28.640625 Z M 29.28125 -28.640625 "/></g></g></g><g fill="#000c44" fill-opacity="1"><g transform="translate(42.587214, 39.351107)"><g><path d="M 9.65625 -24.140625 L 0.15625 -24.140625 L 0.15625 -28.640625 L 24.46875 -28.640625 L 24.46875 -24.140625 L 14.96875 -24.140625 L 14.96875 0 L 9.65625 0 Z M 9.65625 -24.140625 "/></g></g></g><g fill="#000c44" fill-opacity="1"><g transform="translate(75.395323, 39.351107)"><g/></g></g><g fill="#000c44" fill-opacity="1"><g transform="translate(94.868215, 39.351107)"><g><path d="M 17.09375 0.40625 C 14.207031 0.40625 11.597656 -0.222656 9.265625 -1.484375 C 6.929688 -2.753906 5.101562 -4.507812 3.78125 -6.75 C 2.457031 -8.988281 1.796875 -11.507812 1.796875 -14.3125 C 1.796875 -17.125 2.460938 -19.644531 3.796875 -21.875 C 5.140625 -24.113281 6.972656 -25.867188 9.296875 -27.140625 C 11.628906 -28.410156 14.242188 -29.046875 17.140625 -29.046875 C 19.484375 -29.046875 21.625 -28.632812 23.5625 -27.8125 C 25.5 -27 27.132812 -25.8125 28.46875 -24.25 L 25.03125 -21.03125 C 22.957031 -23.257812 20.410156 -24.375 17.390625 -24.375 C 15.421875 -24.375 13.660156 -23.941406 12.109375 -23.078125 C 10.554688 -22.222656 9.34375 -21.03125 8.46875 -19.5 C 7.59375 -17.976562 7.15625 -16.25 7.15625 -14.3125 C 7.15625 -12.375 7.59375 -10.640625 8.46875 -9.109375 C 9.34375 -7.585938 10.554688 -6.394531 12.109375 -5.53125 C 13.660156 -4.675781 15.421875 -4.25 17.390625 -4.25 C 20.410156 -4.25 22.957031 -5.382812 25.03125 -7.65625 L 28.46875 -4.375 C 27.132812 -2.820312 25.488281 -1.632812 23.53125 -0.8125 C 21.582031 0 19.4375 0.40625 17.09375 0.40625 Z M 17.09375 0.40625 "/></g></g></g><g fill="#000c44" fill-opacity="1"><g transform="translate(132.789527, 39.351107)"><g><path d="M 17.21875 0.40625 C 14.300781 0.40625 11.671875 -0.222656 9.328125 -1.484375 C 6.984375 -2.753906 5.140625 -4.515625 3.796875 -6.765625 C 2.460938 -9.015625 1.796875 -11.53125 1.796875 -14.3125 C 1.796875 -17.09375 2.460938 -19.609375 3.796875 -21.859375 C 5.140625 -24.109375 6.984375 -25.867188 9.328125 -27.140625 C 11.671875 -28.410156 14.300781 -29.046875 17.21875 -29.046875 C 20.132812 -29.046875 22.765625 -28.410156 25.109375 -27.140625 C 27.460938 -25.867188 29.304688 -24.113281 30.640625 -21.875 C 31.972656 -19.644531 32.640625 -17.125 32.640625 -14.3125 C 32.640625 -11.507812 31.972656 -8.988281 30.640625 -6.75 C 29.304688 -4.507812 27.460938 -2.753906 25.109375 -1.484375 C 22.765625 -0.222656 20.132812 0.40625 17.21875 0.40625 Z M 17.21875 -4.25 C 19.125 -4.25 20.84375 -4.675781 22.375 -5.53125 C 23.90625 -6.394531 25.101562 -7.597656 25.96875 -9.140625 C 26.84375 -10.679688 27.28125 -12.40625 27.28125 -14.3125 C 27.28125 -16.226562 26.84375 -17.953125 25.96875 -19.484375 C 25.101562 -21.023438 23.90625 -22.222656 22.375 -23.078125 C 20.84375 -23.941406 19.125 -24.375 17.21875 -24.375 C 15.3125 -24.375 13.59375 -23.941406 12.0625 -23.078125 C 10.539062 -22.222656 9.34375 -21.023438 8.46875 -19.484375 C 7.59375 -17.953125 7.15625 -16.226562 7.15625 -14.3125 C 7.15625 -12.40625 7.59375 -10.679688 8.46875 -9.140625 C 9.34375 -7.597656 10.539062 -6.394531 12.0625 -5.53125 C 13.59375 -4.675781 15.3125 -4.25 17.21875 -4.25 Z M 17.21875 -4.25 "/></g></g></g><g fill="#000c44" fill-opacity="1"><g transform="translate(175.414983, 39.351107)"><g><path d="M 30.140625 0 L 30.109375 -18.984375 L 20.703125 -3.265625 L 18.328125 -3.265625 L 8.921875 -18.734375 L 8.921875 0 L 3.84375 0 L 3.84375 -28.640625 L 8.21875 -28.640625 L 19.59375 -9.65625 L 30.765625 -28.640625 L 35.140625 -28.640625 L 35.171875 0 Z M 30.140625 0 "/></g></g></g><g fill="#000c44" fill-opacity="1"><g transform="translate(222.662774, 39.351107)"><g><path d="M 15.625 -28.640625 C 18.101562 -28.640625 20.265625 -28.226562 22.109375 -27.40625 C 23.953125 -26.59375 25.363281 -25.421875 26.34375 -23.890625 C 27.320312 -22.359375 27.8125 -20.546875 27.8125 -18.453125 C 27.8125 -16.378906 27.320312 -14.570312 26.34375 -13.03125 C 25.363281 -11.488281 23.953125 -10.304688 22.109375 -9.484375 C 20.265625 -8.671875 18.101562 -8.265625 15.625 -8.265625 L 9.15625 -8.265625 L 9.15625 0 L 3.84375 0 L 3.84375 -28.640625 Z M 15.375 -12.765625 C 17.695312 -12.765625 19.457031 -13.253906 20.65625 -14.234375 C 21.851562 -15.210938 22.453125 -16.617188 22.453125 -18.453125 C 22.453125 -20.273438 21.851562 -21.675781 20.65625 -22.65625 C 19.457031 -23.644531 17.695312 -24.140625 15.375 -24.140625 L 9.15625 -24.140625 L 9.15625 -12.765625 Z M 15.375 -12.765625 "/></g></g></g><g fill="#000c44" fill-opacity="1"><g transform="translate(260.543182, 39.351107)"><g><path d="M 22.421875 -6.625 L 8.09375 -6.625 L 5.28125 0 L -0.203125 0 L 12.6875 -28.640625 L 17.921875 -28.640625 L 30.84375 0 L 25.28125 0 Z M 20.65625 -10.796875 L 15.265625 -23.3125 L 9.90625 -10.796875 Z M 20.65625 -10.796875 "/></g></g></g><g fill="#000c44" fill-opacity="1"><g transform="translate(299.364421, 39.351107)"><g><path d="M 29.28125 -28.640625 L 29.28125 0 L 24.90625 0 L 9.125 -19.390625 L 9.125 0 L 3.84375 0 L 3.84375 -28.640625 L 8.21875 -28.640625 L 24.015625 -9.25 L 24.015625 -28.640625 Z M 29.28125 -28.640625 "/></g></g></g><g fill="#000c44" fill-opacity="1"><g transform="translate(340.680873, 39.351107)"><g><path d="M 16.203125 -10.109375 L 16.203125 0 L 10.875 0 L 10.875 -10.015625 L -0.375 -28.640625 L 5.3125 -28.640625 L 13.703125 -14.6875 L 22.171875 -28.640625 L 27.40625 -28.640625 Z M 16.203125 -10.109375 "/></g></g></g></g></g><g transform="matrix(1, 0, 0, 1, 48, 341)"><g clip-path="url(#0726b5a88c)"><g fill="#f24855" fill-opacity="1"><g transform="translate(1.442105, 20.106358)"><g><path d="M 0.1875 -14.875 L 0.1875 -18.59375 L 13.25 -18.59375 L 13.25 -14.875 L 8.84375 -14.875 L 8.84375 0 L 4.59375 0 L 4.59375 -14.875 Z M 0.1875 -14.875 "/></g></g></g><g fill="#f24855" fill-opacity="1"><g transform="translate(17.30596, 20.106358)"><g><path d="M 10.796875 -18.59375 L 18.3125 0 L 13.75 0 L 12.375 -3.71875 L 5.296875 -3.71875 L 3.921875 0 L -0.625 0 L 6.875 -18.59375 Z M 10.9375 -7.4375 L 8.859375 -12.859375 L 8.8125 -12.859375 L 6.734375 -7.4375 Z M 10.9375 -7.4375 "/></g></g></g><g fill="#f24855" fill-opacity="1"><g transform="translate(37.405788, 20.106358)"><g><path d="M 8.203125 -18.9375 C 9.210938 -18.9375 10.195312 -18.789062 11.15625 -18.5 C 12.125 -18.207031 12.835938 -17.914062 13.296875 -17.625 L 13.984375 -17.1875 L 12.265625 -13.796875 C 12.128906 -13.890625 11.941406 -14.003906 11.703125 -14.140625 C 11.460938 -14.285156 11.007812 -14.476562 10.34375 -14.71875 C 9.6875 -14.957031 9.070312 -15.078125 8.5 -15.078125 C 7.789062 -15.078125 7.242188 -14.925781 6.859375 -14.625 C 6.484375 -14.332031 6.296875 -13.929688 6.296875 -13.421875 C 6.296875 -13.160156 6.382812 -12.921875 6.5625 -12.703125 C 6.738281 -12.484375 7.046875 -12.25 7.484375 -12 C 7.921875 -11.757812 8.300781 -11.5625 8.625 -11.40625 C 8.957031 -11.257812 9.472656 -11.035156 10.171875 -10.734375 C 11.367188 -10.222656 12.390625 -9.523438 13.234375 -8.640625 C 14.085938 -7.765625 14.515625 -6.769531 14.515625 -5.65625 C 14.515625 -4.59375 14.320312 -3.660156 13.9375 -2.859375 C 13.5625 -2.066406 13.035156 -1.441406 12.359375 -0.984375 C 11.691406 -0.535156 10.953125 -0.203125 10.140625 0.015625 C 9.328125 0.234375 8.453125 0.34375 7.515625 0.34375 C 6.703125 0.34375 5.90625 0.257812 5.125 0.09375 C 4.34375 -0.0703125 3.6875 -0.28125 3.15625 -0.53125 C 2.632812 -0.78125 2.160156 -1.023438 1.734375 -1.265625 C 1.316406 -1.503906 1.007812 -1.707031 0.8125 -1.875 L 0.515625 -2.125 L 2.640625 -5.6875 C 2.816406 -5.53125 3.0625 -5.332031 3.375 -5.09375 C 3.695312 -4.863281 4.257812 -4.550781 5.0625 -4.15625 C 5.863281 -3.769531 6.570312 -3.578125 7.1875 -3.578125 C 8.976562 -3.578125 9.875 -4.1875 9.875 -5.40625 C 9.875 -5.664062 9.8125 -5.90625 9.6875 -6.125 C 9.5625 -6.34375 9.332031 -6.5625 9 -6.78125 C 8.675781 -7 8.390625 -7.171875 8.140625 -7.296875 C 7.898438 -7.421875 7.5 -7.613281 6.9375 -7.875 C 6.375 -8.144531 5.957031 -8.347656 5.6875 -8.484375 C 4.550781 -9.035156 3.675781 -9.726562 3.0625 -10.5625 C 2.445312 -11.394531 2.140625 -12.289062 2.140625 -13.25 C 2.140625 -14.925781 2.753906 -16.289062 3.984375 -17.34375 C 5.222656 -18.40625 6.628906 -18.9375 8.203125 -18.9375 Z M 8.203125 -18.9375 "/></g></g></g><g fill="#f24855" fill-opacity="1"><g transform="translate(54.982061, 20.106358)"><g><path d="M 18.28125 0 L 12.453125 0 L 5.59375 -7.890625 L 5.59375 0 L 1.359375 0 L 1.359375 -18.59375 L 5.59375 -18.59375 L 5.59375 -11 L 11.96875 -18.59375 L 17.109375 -18.59375 L 9.625 -9.78125 Z M 18.28125 0 "/></g></g></g><g fill="#f24855" fill-opacity="1"><g transform="translate(75.149485, 20.106358)"><g/></g></g><g fill="#f24855" fill-opacity="1"><g transform="translate(83.735576, 20.106358)"><g><path d="M 16.734375 0 L 15.84375 -11.03125 L 15.734375 -11.03125 L 11.921875 -0.109375 L 9.40625 -0.109375 L 5.59375 -11.03125 L 5.484375 -11.03125 L 4.59375 0 L 0.359375 0 L 2.03125 -18.59375 L 6.53125 -18.59375 L 10.671875 -7.875 L 14.796875 -18.59375 L 19.296875 -18.59375 L 20.96875 0 Z M 16.734375 0 "/></g></g></g><g fill="#f24855" fill-opacity="1"><g transform="translate(107.485543, 20.106358)"><g><path d="M 10.796875 -18.59375 L 18.3125 0 L 13.75 0 L 12.375 -3.71875 L 5.296875 -3.71875 L 3.921875 0 L -0.625 0 L 6.875 -18.59375 Z M 10.9375 -7.4375 L 8.859375 -12.859375 L 8.8125 -12.859375 L 6.734375 -7.4375 Z M 10.9375 -7.4375 "/></g></g></g><g fill="#f24855" fill-opacity="1"><g transform="translate(127.585371, 20.106358)"><g><path d="M 5.59375 -11.546875 L 5.59375 0 L 1.359375 0 L 1.359375 -18.59375 L 5.59375 -18.59375 L 12.984375 -7.0625 L 13.03125 -7.0625 L 13.03125 -18.59375 L 17.265625 -18.59375 L 17.265625 0 L 13.03125 0 L 5.640625 -11.546875 Z M 5.59375 -11.546875 "/></g></g></g><g fill="#f24855" fill-opacity="1"><g transform="translate(148.631527, 20.106358)"><g><path d="M 18.171875 -10.421875 L 18.171875 -6.375 C 17.691406 -4.164062 16.640625 -2.492188 15.015625 -1.359375 C 13.390625 -0.222656 11.578125 0.34375 9.578125 0.34375 C 7.066406 0.34375 4.925781 -0.59375 3.15625 -2.46875 C 1.394531 -4.351562 0.515625 -6.628906 0.515625 -9.296875 C 0.515625 -11.992188 1.378906 -14.273438 3.109375 -16.140625 C 4.835938 -18.003906 6.992188 -18.9375 9.578125 -18.9375 C 12.597656 -18.9375 14.988281 -17.878906 16.75 -15.765625 L 13.984375 -12.71875 C 12.984375 -14.3125 11.597656 -15.109375 9.828125 -15.109375 C 8.523438 -15.109375 7.410156 -14.539062 6.484375 -13.40625 C 5.554688 -12.269531 5.09375 -10.898438 5.09375 -9.296875 C 5.09375 -7.710938 5.554688 -6.359375 6.484375 -5.234375 C 7.410156 -4.117188 8.523438 -3.5625 9.828125 -3.5625 C 10.910156 -3.5625 11.851562 -3.890625 12.65625 -4.546875 C 13.457031 -5.203125 13.859375 -6.066406 13.859375 -7.140625 L 9.578125 -7.140625 L 9.578125 -10.421875 Z M 18.171875 -10.421875 "/></g></g></g><g fill="#f24855" fill-opacity="1"><g transform="translate(169.74528, 20.106358)"><g><path d="M 12 -18.59375 L 12 -14.875 L 5.59375 -14.875 L 5.59375 -11.1875 L 11.71875 -11.1875 L 11.71875 -7.46875 L 5.59375 -7.46875 L 5.59375 -3.71875 L 12 -3.71875 L 12 0 L 1.359375 0 L 1.359375 -18.59375 Z M 12 -18.59375 "/></g></g></g><g fill="#f24855" fill-opacity="1"><g transform="translate(185.248622, 20.106358)"><g><path d="M 1.359375 -18.59375 L 8 -18.59375 C 9.789062 -18.59375 11.25 -18.113281 12.375 -17.15625 C 13.5 -16.207031 14.0625 -14.847656 14.0625 -13.078125 C 14.0625 -11.710938 13.71875 -10.566406 13.03125 -9.640625 C 12.351562 -8.710938 11.429688 -8.0625 10.265625 -7.6875 L 16.65625 0 L 11.265625 0 L 5.59375 -7.34375 L 5.59375 0 L 1.359375 0 Z M 5.59375 -10.34375 L 6.09375 -10.34375 C 6.476562 -10.34375 6.804688 -10.347656 7.078125 -10.359375 C 7.347656 -10.378906 7.65625 -10.4375 8 -10.53125 C 8.34375 -10.625 8.617188 -10.75 8.828125 -10.90625 C 9.046875 -11.070312 9.226562 -11.3125 9.375 -11.625 C 9.53125 -11.945312 9.609375 -12.332031 9.609375 -12.78125 C 9.609375 -13.226562 9.53125 -13.609375 9.375 -13.921875 C 9.226562 -14.242188 9.046875 -14.488281 8.828125 -14.65625 C 8.617188 -14.820312 8.34375 -14.945312 8 -15.03125 C 7.65625 -15.125 7.347656 -15.175781 7.078125 -15.1875 C 6.804688 -15.207031 6.476562 -15.21875 6.09375 -15.21875 L 5.59375 -15.21875 Z M 5.59375 -10.34375 "/></g></g></g><g fill="#f24855" fill-opacity="1"><g transform="translate(203.816289, 20.106358)"><g><path d="M 16.734375 0 L 15.84375 -11.03125 L 15.734375 -11.03125 L 11.921875 -0.109375 L 9.40625 -0.109375 L 5.59375 -11.03125 L 5.484375 -11.03125 L 4.59375 0 L 0.359375 0 L 2.03125 -18.59375 L 6.53125 -18.59375 L 10.671875 -7.875 L 14.796875 -18.59375 L 19.296875 -18.59375 L 20.96875 0 Z M 16.734375 0 "/></g></g></g><g fill="#f24855" fill-opacity="1"><g transform="translate(227.566256, 20.106358)"><g><path d="M 12 -18.59375 L 12 -14.875 L 5.59375 -14.875 L 5.59375 -11.1875 L 11.71875 -11.1875 L 11.71875 -7.46875 L 5.59375 -7.46875 L 5.59375 -3.71875 L 12 -3.71875 L 12 0 L 1.359375 0 L 1.359375 -18.59375 Z M 12 -18.59375 "/></g></g></g><g fill="#f24855" fill-opacity="1"><g transform="translate(243.069599, 20.106358)"><g><path d="M 5.59375 -11.546875 L 5.59375 0 L 1.359375 0 L 1.359375 -18.59375 L 5.59375 -18.59375 L 12.984375 -7.0625 L 13.03125 -7.0625 L 13.03125 -18.59375 L 17.265625 -18.59375 L 17.265625 0 L 13.03125 0 L 5.640625 -11.546875 Z M 5.59375 -11.546875 "/></g></g></g><g fill="#f24855" fill-opacity="1"><g transform="translate(264.115755, 20.106358)"><g><path d="M 0.1875 -14.875 L 0.1875 -18.59375 L 13.25 -18.59375 L 13.25 -14.875 L 8.84375 -14.875 L 8.84375 0 L 4.59375 0 L 4.59375 -14.875 Z M 0.1875 -14.875 "/></g></g></g></g></g><g clip-path="url(#0f8aa671d6)"><path fill="#f24855" d="M 133.414062 250.207031 C 131.515625 249.261719 130.230469 247.25 130.230469 245.019531 C 130.230469 229.226562 136.707031 214.886719 147.027344 204.507812 C 148.589844 202.945312 150.433594 201.328125 152.21875 199.875 C 154.671875 202.945312 156.679688 206.351562 158.132812 209.921875 C 157.070312 210.757812 156.125 211.707031 155.175781 212.65625 C 147.53125 220.300781 142.5625 230.511719 141.839844 241.839844 C 146.691406 244.574219 150.433594 246.300781 154.003906 246.804688 C 157.40625 247.25 161.203125 246.582031 166.277344 244.796875 L 166.277344 225.433594 C 166.277344 212.824219 161.089844 201.328125 152.71875 193.070312 C 144.460938 184.699219 133.023438 179.621094 120.46875 179.621094 C 110.199219 179.621094 100.769531 183.023438 93.179688 188.605469 C 85.984375 194.019531 80.402344 201.382812 77.332031 209.976562 C 82.859375 219.183594 89.5 227.777344 97.03125 235.367188 C 120.1875 258.523438 152.273438 272.808594 187.59375 272.808594 C 196.078125 272.808594 204.390625 271.96875 212.648438 270.242188 C 219.734375 268.84375 226.597656 266.835938 233.40625 264.324219 L 233.40625 244.964844 C 233.40625 232.351562 228.21875 220.96875 219.847656 212.597656 C 211.589844 204.339844 200.148438 199.152344 187.59375 199.152344 C 184.078125 199.152344 180.730469 199.597656 177.4375 200.324219 C 175.875 196.640625 173.921875 193.125 171.636719 189.945312 C 176.714844 188.4375 182.015625 187.601562 187.59375 187.601562 C 196.46875 187.601562 204.949219 189.722656 212.480469 193.292969 C 217.222656 186.316406 223.472656 180.515625 230.671875 176.160156 C 239.265625 170.972656 249.308594 168.015625 259.96875 168.015625 C 271.40625 168.015625 282.175781 171.417969 291.160156 177.332031 C 297.074219 181.238281 302.375 186.207031 306.503906 192.066406 C 312.308594 177.277344 315.488281 161.152344 315.488281 144.746094 C 315.488281 109.425781 301.203125 77.453125 278.046875 54.292969 C 254.890625 31.136719 222.917969 16.851562 187.59375 16.851562 C 152.273438 16.851562 120.1875 31.195312 97.03125 54.351562 C 73.875 77.507812 59.589844 109.480469 59.589844 144.800781 C 59.589844 163.441406 63.605469 181.070312 70.695312 197.085938 C 74.601562 190.222656 80.011719 184.195312 86.375 179.398438 C 96.027344 172.3125 107.746094 168.070312 120.523438 168.070312 C 136.316406 168.070312 150.542969 174.542969 160.921875 184.867188 C 171.300781 195.191406 177.71875 209.640625 177.71875 225.378906 L 177.71875 248.644531 C 177.71875 251.101562 176.15625 253.277344 173.921875 254.058594 C 165.164062 257.628906 158.914062 258.914062 152.550781 258.078125 C 146.414062 257.351562 140.945312 254.617188 133.414062 250.207031 Z M 120.523438 105.574219 C 127.832031 105.574219 134.363281 108.53125 139.160156 113.21875 C 143.902344 117.960938 146.859375 124.660156 146.859375 131.855469 C 146.859375 139.167969 143.902344 145.695312 139.160156 150.492188 C 134.417969 155.238281 127.832031 158.195312 120.523438 158.195312 C 113.324219 158.195312 106.683594 155.238281 101.886719 150.492188 C 97.144531 145.75 94.242188 139.167969 94.242188 131.855469 C 94.242188 124.660156 97.085938 118.019531 101.886719 113.21875 C 106.628906 108.53125 113.324219 105.574219 120.523438 105.574219 Z M 131.011719 121.308594 C 128.390625 118.6875 124.652344 117.070312 120.523438 117.070312 C 116.503906 117.070312 112.824219 118.632812 110.03125 121.308594 C 107.410156 124.042969 105.679688 127.785156 105.679688 131.800781 C 105.679688 135.929688 107.355469 139.613281 110.03125 142.292969 C 112.765625 144.914062 116.503906 146.644531 120.523438 146.644531 C 124.652344 146.644531 128.335938 144.96875 131.011719 142.292969 C 133.691406 139.613281 135.367188 135.929688 135.367188 131.800781 C 135.308594 127.785156 133.636719 124.042969 131.011719 121.308594 Z M 254.554688 105.574219 C 261.863281 105.574219 268.394531 108.53125 273.191406 113.21875 C 277.933594 117.960938 280.835938 124.660156 280.835938 131.855469 C 280.835938 139.167969 277.992188 145.695312 273.191406 150.492188 C 268.449219 155.238281 261.863281 158.195312 254.554688 158.195312 C 247.246094 158.195312 240.714844 155.238281 235.917969 150.492188 C 231.175781 145.75 228.21875 139.167969 228.21875 131.855469 C 228.21875 124.660156 231.175781 118.019531 235.917969 113.21875 C 240.714844 108.53125 247.246094 105.574219 254.554688 105.574219 Z M 265.046875 121.308594 C 262.3125 118.6875 258.574219 117.070312 254.554688 117.070312 C 250.425781 117.070312 246.742188 118.632812 244.0625 121.308594 C 241.441406 124.042969 239.710938 127.785156 239.710938 131.800781 C 239.710938 135.929688 241.386719 139.613281 244.0625 142.292969 C 246.742188 144.96875 250.425781 146.644531 254.554688 146.644531 C 258.574219 146.644531 262.253906 144.96875 265.046875 142.292969 C 267.667969 139.667969 269.398438 135.929688 269.398438 131.800781 C 269.398438 127.785156 267.667969 124.042969 265.046875 121.308594 Z M 187.59375 124.714844 C 194.792969 124.714844 201.320312 127.671875 206.121094 132.414062 C 210.863281 137.15625 213.820312 143.742188 213.820312 151.050781 C 213.820312 158.25 210.863281 164.777344 206.121094 169.578125 C 201.378906 174.320312 194.792969 177.277344 187.59375 177.277344 C 180.285156 177.277344 173.757812 174.320312 168.957031 169.578125 C 164.214844 164.835938 161.257812 158.25 161.257812 151.050781 C 161.257812 143.742188 164.214844 137.214844 168.957031 132.414062 C 173.757812 127.671875 180.285156 124.714844 187.59375 124.714844 Z M 197.972656 140.5625 C 195.351562 137.9375 191.613281 136.210938 187.59375 136.210938 C 183.464844 136.210938 179.78125 137.882812 177.105469 140.5625 C 174.371094 143.183594 172.75 146.921875 172.75 151.050781 C 172.75 155.070312 174.3125 158.753906 177.105469 161.429688 C 179.726562 164.164062 183.464844 165.78125 187.59375 165.78125 C 191.613281 165.78125 195.296875 164.21875 197.972656 161.429688 C 200.707031 158.808594 202.324219 155.070312 202.324219 151.050781 C 202.324219 146.921875 200.707031 143.238281 197.972656 140.5625 Z M 222.191406 199.375 C 224.3125 200.9375 226.207031 202.667969 227.992188 204.453125 C 238.371094 214.832031 244.789062 229.226562 244.789062 244.964844 L 244.789062 268.230469 C 244.789062 270.855469 243.117188 273.085938 240.660156 273.757812 C 232.289062 277.269531 223.640625 279.78125 214.9375 281.566406 C 205.953125 283.355469 196.746094 284.300781 187.539062 284.300781 C 148.925781 284.300781 114.105469 268.621094 88.828125 243.457031 C 63.71875 218.234375 48.039062 183.414062 48.039062 144.800781 C 48.039062 106.300781 63.71875 71.480469 88.882812 46.203125 C 114.160156 21.039062 148.980469 5.359375 187.59375 5.359375 C 226.097656 5.359375 260.914062 21.039062 286.191406 46.203125 C 311.359375 71.480469 327.039062 106.300781 327.039062 144.800781 C 327.039062 166.621094 321.960938 187.769531 312.53125 206.796875 C 312.308594 207.128906 312.195312 207.410156 312.027344 207.746094 C 311.582031 208.46875 311.304688 209.25 310.855469 209.976562 C 300.476562 229.785156 285.246094 247.027344 266.21875 260.027344 C 263.59375 261.816406 260.078125 261.089844 258.292969 258.523438 C 256.507812 255.898438 257.121094 252.273438 259.800781 250.488281 C 277.265625 238.546875 291.214844 222.753906 300.757812 204.5625 C 297.1875 197.476562 291.660156 191.339844 284.964844 186.988281 C 277.765625 182.355469 269.175781 179.566406 260.023438 179.566406 C 251.429688 179.566406 243.394531 181.910156 236.644531 186.039062 C 230.839844 189.441406 225.984375 194.019531 222.191406 199.375 Z M 222.191406 199.375 " fill-opacity="1" fill-rule="nonzero"/></g></svg>