<svg xmlns="http://www.w3.org/2000/svg" xmlns:xlink="http://www.w3.org/1999/xlink" width="500" zoomAndPan="magnify" viewBox="0 0 375 374.999991" height="500" preserveAspectRatio="xMidYMid meet" version="1.0"><defs><g/></defs><path fill="#8cc63f" d="M 220.5 33 C 220.5 51.25 205.75 66 187.5 66 C 169.25 66 154.5 51.25 154.5 33 C 154.5 14.75 169.25 0 187.5 0 C 205.75 0 220.5 14.75 220.5 33 Z M 220.5 33 " fill-opacity="1" fill-rule="nonzero"/><path fill="#0071bc" d="M 220.5 342 C 220.5 360.25 205.75 375 187.5 375 C 169.25 375 154.5 360.25 154.5 342 C 154.5 323.75 169.25 309 187.5 309 C 205.75 309 220.5 323.75 220.5 342 Z M 220.5 342 " fill-opacity="1" fill-rule="nonzero"/><path fill="#29abe2" d="M 342 220.5 C 323.75 220.5 309 205.75 309 187.5 C 309 169.25 323.75 154.5 342 154.5 C 360.25 154.5 375 169.25 375 187.5 C 375 205.75 360.25 220.5 342 220.5 Z M 342 220.5 " fill-opacity="1" fill-rule="nonzero"/><path fill="#009245" d="M 33 220.5 C 14.75 220.5 0 205.75 0 187.5 C 0 169.25 14.75 154.5 33 154.5 C 51.25 154.5 66 169.25 66 187.5 C 66 205.75 51.25 220.5 33 220.5 Z M 33 220.5 " fill-opacity="1" fill-rule="nonzero"/><path fill="#8cc63f" d="M 84 162.25 L 89.75 168 C 96 174.25 106.25 174.25 112.5 168 C 118.75 161.75 118.75 151.5 112.5 145.25 L 106.75 139.5 C 97.75 130.5 97.75 115.75 106.75 106.75 C 115.75 97.75 130.5 97.75 139.5 106.75 L 192.5 159.75 C 198.75 166 209 166 215.25 159.75 C 221.5 153.5 221.5 143.25 215.25 137 L 162.25 84 C 140.75 62.5 105.75 62.5 84 84 C 62.5 105.5 62.5 140.5 84 162.25 Z M 84 162.25 " fill-opacity="1" fill-rule="nonzero"/><path fill="#8cc63f" d="M 77.75 31.5 C 90.5 44.25 90.5 65 77.75 77.75 C 65 90.5 44.25 90.5 31.5 77.75 C 18.75 65 18.75 44.25 31.5 31.5 C 44.25 18.75 65 18.75 77.75 31.5 Z M 77.75 31.5 " fill-opacity="1" fill-rule="nonzero"/><path fill="#009245" d="M 162.25 291 L 168 285.25 C 174.25 279 174.25 268.75 168 262.5 C 161.75 256.25 151.5 256.25 145.25 262.5 L 139.5 268.25 C 130.5 277.25 115.75 277.25 106.75 268.25 C 97.75 259.25 97.75 244.5 106.75 235.5 L 159.75 182.5 C 166 176.25 166 166 159.75 159.75 C 153.5 153.5 143.25 153.5 137 159.75 L 84 212.75 C 62.5 234.25 62.5 269.25 84 291 C 105.5 312.5 140.5 312.5 162.25 291 Z M 162.25 291 " fill-opacity="1" fill-rule="nonzero"/><path fill="#009245" d="M 31.5 297.25 C 44.25 284.5 65 284.5 77.75 297.25 C 90.5 310 90.5 330.75 77.75 343.5 C 65 356.25 44.25 356.25 31.5 343.5 C 18.75 330.75 18.75 310 31.5 297.25 Z M 31.5 297.25 " fill-opacity="1" fill-rule="nonzero"/><path fill="#0071bc" d="M 291 212.75 L 285.25 207 C 279 200.75 268.75 200.75 262.5 207 C 256.25 213.25 256.25 223.5 262.5 229.75 L 268.25 235.5 C 277.25 244.5 277.25 259.25 268.25 268.25 C 259.25 277.25 244.5 277.25 235.5 268.25 L 182.5 215.25 C 176.25 209 166 209 159.75 215.25 C 153.5 221.5 153.5 231.75 159.75 238 L 212.75 291 C 234.25 312.5 269.25 312.5 291 291 C 312.5 269.5 312.5 234.5 291 212.75 Z M 291 212.75 " fill-opacity="1" fill-rule="nonzero"/><path fill="#0071bc" d="M 297.25 343.5 C 284.5 330.75 284.5 310 297.25 297.25 C 310 284.5 330.75 284.5 343.5 297.25 C 356.25 310 356.25 330.75 343.5 343.5 C 330.75 356.25 310 356.25 297.25 343.5 Z M 297.25 343.5 " fill-opacity="1" fill-rule="nonzero"/><path fill="#29abe2" d="M 212.75 84 L 207 89.75 C 200.75 96 200.75 106.25 207 112.5 C 213.25 118.75 223.5 118.75 229.75 112.5 L 235.5 106.75 C 244.5 97.75 259.25 97.75 268.25 106.75 C 277.25 115.75 277.25 130.5 268.25 139.5 L 215.25 192.5 C 209 198.75 209 209 215.25 215.25 C 221.5 221.5 231.75 221.5 238 215.25 L 291 162.25 C 312.5 140.75 312.5 105.75 291 84 C 269.5 62.5 234.5 62.5 212.75 84 Z M 212.75 84 " fill-opacity="1" fill-rule="nonzero"/><path fill="#29abe2" d="M 343.5 77.75 C 330.75 90.5 310 90.5 297.25 77.75 C 284.5 65 284.5 44.25 297.25 31.5 C 310 18.75 330.75 18.75 343.5 31.5 C 356.25 44.25 356.25 65 343.5 77.75 Z M 343.5 77.75 " fill-opacity="1" fill-rule="nonzero"/><g fill="#000000" fill-opacity="1"><g transform="translate(165.606819, 181.874988)"><g><path d="M 6.53125 -8.984375 L 6.53125 -6.984375 L 4.34375 -6.984375 L 4.34375 0 L 2.0625 0 L 2.0625 -6.984375 L -0.140625 -6.984375 L -0.140625 -8.984375 Z M 6.53125 -8.984375 "/></g></g></g><g fill="#000000" fill-opacity="1"><g transform="translate(173.803695, 181.874988)"><g><path d="M 6.46875 -6.984375 L 3.1875 -6.984375 L 3.1875 -5.46875 L 5.953125 -5.46875 L 5.953125 -3.5 L 3.1875 -3.5 L 3.1875 -1.984375 L 6.46875 -1.984375 L 6.46875 0 L 0.890625 0 L 0.890625 -8.984375 L 6.46875 -8.984375 Z M 6.46875 -6.984375 "/></g></g></g><g fill="#000000" fill-opacity="1"><g transform="translate(182.568896, 181.874988)"><g><path d="M 6.328125 0 L 5.828125 -1.578125 L 2.6875 -1.578125 L 2.203125 0 L -0.265625 0 L 2.984375 -8.984375 L 5.53125 -8.984375 L 8.78125 0 Z M 3.28125 -3.421875 L 5.265625 -3.421875 L 4.265625 -6.59375 Z M 3.28125 -3.421875 "/></g></g></g><g fill="#000000" fill-opacity="1"><g transform="translate(192.88952, 181.874988)"><g><path d="M 8.625 -8.984375 L 11.09375 -8.984375 L 11.09375 0 L 8.796875 0 L 8.796875 -4.796875 L 6.5625 0 L 5.34375 0 L 3.109375 -4.828125 L 3.109375 0 L 0.828125 0 L 0.828125 -8.984375 L 3.3125 -8.984375 L 5.953125 -3.265625 Z M 8.625 -8.984375 "/></g></g></g><g fill="#000000" fill-opacity="1"><g transform="translate(206.590203, 181.874988)"><g><path d="M 3.75 0.125 C 3.207031 0.125 2.703125 0.03125 2.234375 -0.15625 C 1.773438 -0.34375 1.367188 -0.59375 1.015625 -0.90625 C 0.671875 -1.21875 0.394531 -1.5625 0.1875 -1.9375 L 2.0625 -3.109375 C 2.21875 -2.773438 2.445312 -2.507812 2.75 -2.3125 C 3.050781 -2.113281 3.394531 -2.015625 3.78125 -2.015625 C 4.070312 -2.015625 4.289062 -2.070312 4.4375 -2.1875 C 4.59375 -2.300781 4.671875 -2.453125 4.671875 -2.640625 C 4.671875 -2.867188 4.570312 -3.046875 4.375 -3.171875 C 4.175781 -3.296875 3.921875 -3.410156 3.609375 -3.515625 C 3.296875 -3.617188 2.96875 -3.726562 2.625 -3.84375 C 2.28125 -3.96875 1.953125 -4.125 1.640625 -4.3125 C 1.328125 -4.507812 1.070312 -4.769531 0.875 -5.09375 C 0.675781 -5.414062 0.578125 -5.835938 0.578125 -6.359375 C 0.578125 -6.992188 0.726562 -7.515625 1.03125 -7.921875 C 1.332031 -8.328125 1.710938 -8.625 2.171875 -8.8125 C 2.640625 -9 3.109375 -9.09375 3.578125 -9.09375 C 4.128906 -9.09375 4.660156 -8.972656 5.171875 -8.734375 C 5.679688 -8.492188 6.113281 -8.171875 6.46875 -7.765625 L 4.96875 -6.3125 C 4.476562 -6.832031 4.003906 -7.09375 3.546875 -7.09375 C 3.367188 -7.09375 3.210938 -7.046875 3.078125 -6.953125 C 2.953125 -6.867188 2.890625 -6.722656 2.890625 -6.515625 C 2.890625 -6.285156 2.984375 -6.109375 3.171875 -5.984375 C 3.367188 -5.867188 3.625 -5.757812 3.9375 -5.65625 C 4.25 -5.5625 4.578125 -5.453125 4.921875 -5.328125 C 5.273438 -5.203125 5.601562 -5.035156 5.90625 -4.828125 C 6.21875 -4.617188 6.46875 -4.335938 6.65625 -3.984375 C 6.851562 -3.628906 6.953125 -3.171875 6.953125 -2.609375 C 6.953125 -2.023438 6.804688 -1.53125 6.515625 -1.125 C 6.222656 -0.726562 5.832031 -0.421875 5.34375 -0.203125 C 4.863281 0.015625 4.332031 0.125 3.75 0.125 Z M 3.75 0.125 "/></g></g></g><g fill="#000000" fill-opacity="1"><g transform="translate(171.360725, 198.374987)"><g><path d="M 6.53125 -8.984375 L 6.53125 -6.984375 L 4.34375 -6.984375 L 4.34375 0 L 2.0625 0 L 2.0625 -6.984375 L -0.140625 -6.984375 L -0.140625 -8.984375 Z M 6.53125 -8.984375 "/></g></g></g><g fill="#000000" fill-opacity="1"><g transform="translate(179.557601, 198.374987)"><g><path d="M 6.328125 0 L 5.828125 -1.578125 L 2.6875 -1.578125 L 2.203125 0 L -0.265625 0 L 2.984375 -8.984375 L 5.53125 -8.984375 L 8.78125 0 Z M 3.28125 -3.421875 L 5.265625 -3.421875 L 4.265625 -6.59375 Z M 3.28125 -3.421875 "/></g></g></g><g fill="#000000" fill-opacity="1"><g transform="translate(189.878225, 198.374987)"><g><path d="M 3.75 0.125 C 3.207031 0.125 2.703125 0.03125 2.234375 -0.15625 C 1.773438 -0.34375 1.367188 -0.59375 1.015625 -0.90625 C 0.671875 -1.21875 0.394531 -1.5625 0.1875 -1.9375 L 2.0625 -3.109375 C 2.21875 -2.773438 2.445312 -2.507812 2.75 -2.3125 C 3.050781 -2.113281 3.394531 -2.015625 3.78125 -2.015625 C 4.070312 -2.015625 4.289062 -2.070312 4.4375 -2.1875 C 4.59375 -2.300781 4.671875 -2.453125 4.671875 -2.640625 C 4.671875 -2.867188 4.570312 -3.046875 4.375 -3.171875 C 4.175781 -3.296875 3.921875 -3.410156 3.609375 -3.515625 C 3.296875 -3.617188 2.96875 -3.726562 2.625 -3.84375 C 2.28125 -3.96875 1.953125 -4.125 1.640625 -4.3125 C 1.328125 -4.507812 1.070312 -4.769531 0.875 -5.09375 C 0.675781 -5.414062 0.578125 -5.835938 0.578125 -6.359375 C 0.578125 -6.992188 0.726562 -7.515625 1.03125 -7.921875 C 1.332031 -8.328125 1.710938 -8.625 2.171875 -8.8125 C 2.640625 -9 3.109375 -9.09375 3.578125 -9.09375 C 4.128906 -9.09375 4.660156 -8.972656 5.171875 -8.734375 C 5.679688 -8.492188 6.113281 -8.171875 6.46875 -7.765625 L 4.96875 -6.3125 C 4.476562 -6.832031 4.003906 -7.09375 3.546875 -7.09375 C 3.367188 -7.09375 3.210938 -7.046875 3.078125 -6.953125 C 2.953125 -6.867188 2.890625 -6.722656 2.890625 -6.515625 C 2.890625 -6.285156 2.984375 -6.109375 3.171875 -5.984375 C 3.367188 -5.867188 3.625 -5.757812 3.9375 -5.65625 C 4.25 -5.5625 4.578125 -5.453125 4.921875 -5.328125 C 5.273438 -5.203125 5.601562 -5.035156 5.90625 -4.828125 C 6.21875 -4.617188 6.46875 -4.335938 6.65625 -3.984375 C 6.851562 -3.628906 6.953125 -3.171875 6.953125 -2.609375 C 6.953125 -2.023438 6.804688 -1.53125 6.515625 -1.125 C 6.222656 -0.726562 5.832031 -0.421875 5.34375 -0.203125 C 4.863281 0.015625 4.332031 0.125 3.75 0.125 Z M 3.75 0.125 "/></g></g></g><g fill="#000000" fill-opacity="1"><g transform="translate(198.957498, 198.374987)"><g><path d="M 6.515625 0 L 3.265625 -4.015625 L 3.109375 -4.015625 L 3.109375 0 L 0.828125 0 L 0.828125 -8.984375 L 3.109375 -8.984375 L 3.109375 -5.96875 L 3.359375 -5.96875 L 6.078125 -8.984375 L 8.984375 -8.984375 L 5.203125 -5.046875 L 9.546875 0 Z M 6.515625 0 "/></g></g></g></svg>